<svg width="28" height="24" viewBox="0 0 28 24" fill="none" xmlns="http://www.w3.org/2000/svg">
<g id="&#240;&#159;&#166;&#134; icon &#34;copyright&#34;">
<g id="Group">
<path id="Vector" d="M13.5587 24C6.07932 24 0 18.6195 0 12C0 5.38047 6.07932 0 13.5587 0C21.038 0 27.1173 5.38047 27.1173 12C27.1173 18.6195 21.038 24 13.5587 24ZM13.5587 1.67442C7.12618 1.67442 1.89191 6.30698 1.89191 12C1.89191 17.693 7.12618 22.3256 13.5587 22.3256C19.9911 22.3256 25.2254 17.693 25.2254 12C25.2254 6.30698 19.9911 1.67442 13.5587 1.67442Z" fill="white"/>
<path id="Vector_2" d="M13.8615 17.3024C10.557 17.3024 7.87048 14.9247 7.87048 12.0001C7.87048 9.07543 10.557 6.69775 13.8615 6.69775C15.3119 6.69775 16.7246 7.16659 17.8093 8.02613C18.2003 8.32752 18.2381 8.86334 17.8975 9.20938C17.557 9.55543 16.9516 9.58893 16.5606 9.28753C15.8165 8.70707 14.8579 8.38335 13.8615 8.38335C11.6038 8.38335 9.76239 10.0131 9.76239 12.0112C9.76239 14.0094 11.6038 15.6392 13.8615 15.6392C14.8453 15.6392 15.8165 15.3154 16.5606 14.735C16.9516 14.4336 17.557 14.4671 17.8975 14.8131C18.2381 15.1592 18.2003 15.695 17.8093 15.9964C16.712 16.8336 15.3119 17.3024 13.8615 17.3024Z" fill="white"/>
</g>
</g>
</svg>
